<?xml version="1.0" standalone="no"?><!DOCTYPE svg PUBLIC "-//W3C//DTD SVG 1.1//EN" "http://www.w3.org/Graphics/SVG/1.1/DTD/svg11.dtd"><svg t="1503641459819" class="icon" style="" viewBox="0 0 1024 1024" version="1.1" xmlns="http://www.w3.org/2000/svg" p-id="2772" xmlns:xlink="http://www.w3.org/1999/xlink" width="200" height="200"><defs><style type="text/css"></style></defs><path d="M632.832 219.648z" fill="#333333" p-id="2773"></path><path d="M512 44.032c-18.432 0-36.352 0-51.2 3.584-44.032 3.584-83.968 14.848-120.832 29.184 0 0 314.368 310.784 321.536 321.536V69.632c-10.752-3.584-18.432-7.168-29.184-7.168-36.352-11.264-76.288-18.432-120.32-18.432z" fill="#F77557" p-id="2774"></path><path d="M800.768 387.584z" fill="#333333" p-id="2775"></path><path d="M841.216 179.2c-10.752-10.752-25.6-25.6-40.448-36.352-32.768-25.6-69.632-47.616-105.984-61.952 0 0 3.584 442.368 0 456.704l233.984-233.984c-3.584-7.168-10.752-18.432-14.848-25.6-17.92-36.352-43.52-69.632-72.704-98.816z" fill="#6D5AEF" p-id="2776"></path><path d="M804.352 632.832z" fill="#333333" p-id="2777"></path><path d="M943.104 339.968s-310.784 314.368-321.536 321.536h332.8c3.584-10.752 7.168-18.432 7.168-29.184 10.752-40.448 14.848-80.384 14.848-120.832 0-18.432 0-36.352-3.584-51.2-4.096-43.52-11.264-83.456-29.696-120.32z" fill="#5A9EF4" p-id="2778"></path><path d="M632.832 804.352z" fill="#333333" p-id="2779"></path><path d="M482.816 698.368l233.984 233.984c7.168-3.584 18.432-7.168 25.6-14.848 32.768-18.432 66.048-44.032 95.232-73.216 10.752-10.752 25.6-25.6 36.352-40.448 25.6-32.768 47.616-69.632 61.952-105.984 3.584 0.512-438.784 0.512-453.12 0.512z" fill="#58E5EF" p-id="2780"></path><path d="M391.168 804.352z" fill="#333333" p-id="2781"></path><path d="M361.984 621.568v332.8c10.752 3.584 18.432 7.168 29.184 7.168 40.448 10.752 80.384 14.848 120.832 14.848 18.432 0 36.352 0 51.2-3.584 44.032-3.584 83.968-14.848 120.832-29.184 0 3.584-314.368-307.2-322.048-322.048z" fill="#57F15B" p-id="2782"></path><path d="M223.232 632.832z" fill="#333333" p-id="2783"></path><path d="M329.216 486.4l-233.984 233.984c3.584 7.168 10.752 18.432 14.848 25.6 18.432 32.768 44.032 66.048 73.216 95.232 10.752 10.752 25.6 25.6 40.448 36.352 32.768 25.6 69.632 47.616 105.984 61.952-0.512 3.584-4.096-442.368-0.512-453.12z" fill="#B8F05B" p-id="2784"></path><path d="M223.232 391.168z" fill="#333333" p-id="2785"></path><path d="M62.464 391.168C51.2 431.616 47.616 471.552 47.616 512c0 18.432 0 36.352 3.584 51.2 3.584 44.032 14.848 83.968 29.184 120.832 0 0 310.784-314.368 321.536-321.536h-332.8c-3.072 10.752-3.072 17.92-6.656 28.672z" fill="#EFDE5A" p-id="2786"></path><path d="M391.168 223.232z" fill="#333333" p-id="2787"></path><path d="M278.016 110.08C245.248 128 212.48 153.6 182.784 182.784c-14.848 10.752-25.6 25.6-36.352 40.448-25.6 32.768-47.616 69.632-61.952 105.984 0 0 442.368-3.584 456.704 0L307.2 95.232c-10.752 3.584-22.016 7.168-29.184 14.848z" fill="#F0B25C" p-id="2788"></path><path d="M391.168 223.232z" fill="#333333" p-id="2789"></path></svg>