<?xml version="1.0" standalone="no"?><!DOCTYPE svg PUBLIC "-//W3C//DTD SVG 1.1//EN" "http://www.w3.org/Graphics/SVG/1.1/DTD/svg11.dtd"><svg t="1503633623835" class="icon" style="" viewBox="0 0 1024 1024" version="1.1" xmlns="http://www.w3.org/2000/svg" p-id="15672" xmlns:xlink="http://www.w3.org/1999/xlink" width="200" height="200"><defs><style type="text/css"></style></defs><path d="M950.624 505.376l-416-416c-12.512-12.512-32.736-12.512-45.248 0l-416 416c-12.512 12.512-12.512 32.736 0 45.248s32.736 12.512 45.248 0L512 157.248l256.448 256.448C768.416 414.496 768 415.2 768 416l0 480L256 896 256 576c0-17.696-14.336-32-32-32s-32 14.304-32 32l0 352c0 17.696 14.336 32 32 32l576 0c17.696 0 32-14.304 32-32L832 477.248l73.376 73.376C911.616 556.864 919.808 560 928 560s16.384-3.136 22.624-9.376C963.136 538.112 963.136 517.888 950.624 505.376z" p-id="15673"></path></svg>