<?xml version="1.0" standalone="no"?><!DOCTYPE svg PUBLIC "-//W3C//DTD SVG 1.1//EN" "http://www.w3.org/Graphics/SVG/1.1/DTD/svg11.dtd"><svg t="1503157808613" class="icon" style="" viewBox="0 0 1024 1024" version="1.1" xmlns="http://www.w3.org/2000/svg" p-id="29776" xmlns:xlink="http://www.w3.org/1999/xlink" width="200" height="200"><defs><style type="text/css"></style></defs><path d="M747.59113 0c-90.474029 0-163.818015 73.342708-163.818015 163.818015s73.342708 163.818015 163.818015 163.818015 163.818015-73.342708 163.818015-163.818015S838.065159 0 747.59113 0zM747.59113 296.920313c-73.50887 0-133.102297-59.593427-133.102297-133.102297S674.08226 30.716996 747.59113 30.716996c73.50887 0 133.102297 59.593427 133.102297 133.102297S821.100001 296.920313 747.59113 296.920313z" p-id="29777"></path><path d="M179.348428 366.030998c-90.474029 0-163.818015 73.342708-163.818015 163.818015s73.342708 163.818015 163.818015 163.818015 163.818015-73.342708 163.818015-163.818015S269.822457 366.030998 179.348428 366.030998zM179.348428 662.950033c-73.50887 0-133.102297-59.593427-133.102297-133.102297s59.593427-133.102297 133.102297-133.102297 133.102297 59.593427 133.102297 133.102297S252.857298 662.950033 179.348428 662.950033z" p-id="29778"></path><path d="M825.021428 693.665751c-90.474029 0-163.818015 73.342708-163.818015 163.818015s73.342708 163.818015 163.818015 163.818015c90.472751 0 163.818015-73.342708 163.818015-163.818015S915.494179 693.665751 825.021428 693.665751zM825.021428 990.586064c-73.511427 0-133.102297-59.593427-133.102297-133.102297 0-73.50887 59.590871-133.102297 133.102297-133.102297 73.50887 0 133.102297 59.593427 133.102297 133.102297C958.123725 930.992637 898.530299 990.586064 825.021428 990.586064z" p-id="29779"></path><path d="M688.718592 788.69518 339.207949 598.096934 312.238549 583.390303 297.534474 610.357146 688.718592 823.682544Z" p-id="29780"></path><path d="M618.328457 244.447574 618.328457 231.475421 322.944506 432.067683 297.534474 449.324265 314.791055 474.734297 643.214439 251.702471Z" p-id="29781"></path></svg>