<?xml version="1.0" standalone="no"?><!DOCTYPE svg PUBLIC "-//W3C//DTD SVG 1.1//EN" "http://www.w3.org/Graphics/SVG/1.1/DTD/svg11.dtd"><svg t="1503210980585" class="icon" style="" viewBox="0 0 1024 1024" version="1.1" xmlns="http://www.w3.org/2000/svg" p-id="2776" xmlns:xlink="http://www.w3.org/1999/xlink" width="200" height="200"><defs><style type="text/css"></style></defs><path d="M224.826568 183.450923c-11.902583-11.902583-31.173432-11.902583-43.076015 0-11.902583 11.902583-11.902583 31.173432 0 43.076015l43.076015 43.076015c11.902583 11.902583 31.173432 11.902583 43.076015 0 11.902583-11.902583 11.902583-31.173432 0-43.076015L224.826568 183.450923 224.826568 183.450923 224.826568 183.450923 224.826568 183.450923zM803.140959 183.450923l-43.076015 43.076015c-11.902583 11.902583-11.902583 31.173432 0 43.076015 11.902583 11.902583 31.173432 11.902583 43.076015 0l43.076015-43.076015c11.902583-11.902583 11.902583-31.173432 0-43.076015C834.314391 171.548339 815.043542 171.548339 803.140959 183.450923L803.140959 183.450923 803.140959 183.450923 803.140959 183.450923zM148.687823 424.336531 87.852399 424.336531c-16.81476 0-30.417712 13.602952-30.417712 30.417712 0 16.81476 13.602952 30.417712 30.417712 30.417712l60.835424 0c16.81476 0 30.417712-13.602952 30.417712-30.417712C179.105535 437.939483 165.502583 424.336531 148.687823 424.336531L148.687823 424.336531 148.687823 424.336531 148.687823 424.336531zM940.115129 424.336531l-60.835424 0c-16.81476 0-30.417712 13.602952-30.417712 30.417712 0 16.81476 13.602952 30.417712 30.417712 30.417712l60.835424 0c16.81476 0 30.417712-13.602952 30.417712-30.417712C970.532841 437.939483 956.929889 424.336531 940.115129 424.336531L940.115129 424.336531 940.115129 424.336531 940.115129 424.336531zM483.471587 74.249446l0 60.835424c0 16.81476 13.602952 30.417712 30.417712 30.417712 16.81476 0 30.417712-13.602952 30.417712-30.417712L544.307011 74.249446c0-16.81476-13.602952-30.417712-30.417712-30.417712C497.074539 43.831734 483.471587 57.434686 483.471587 74.249446L483.471587 74.249446 483.471587 74.249446 483.471587 74.249446zM300.965314 500.286347c0-117.703321 95.409594-213.112915 213.112915-213.112915 117.703321 0 213.112915 95.409594 213.112915 213.112915 0 117.703321-95.409594 213.112915-213.112915 213.112915C396.374908 713.399262 300.965314 617.989668 300.965314 500.286347L300.965314 500.286347 300.965314 500.286347 300.965314 500.286347zM240.129889 500.286347c0 151.332841 122.615498 273.948339 273.948339 273.948339 151.332841 0 273.948339-122.615498 273.948339-273.948339 0-151.332841-122.615498-273.948339-273.948339-273.948339C362.745387 226.526937 240.129889 349.142435 240.129889 500.286347L240.129889 500.286347 240.129889 500.286347 240.129889 500.286347zM453.053875 926.512177c0 16.81476 13.602952 30.417712 30.417712 30.417712l60.835424 0c16.81476 0 30.417712-13.602952 30.417712-30.417712 0-16.81476-13.602952-30.417712-30.417712-30.417712l-60.835424 0C466.656827 896.094465 453.053875 909.697417 453.053875 926.512177L453.053875 926.512177 453.053875 926.512177 453.053875 926.512177zM392.21845 835.070111c0 16.81476 13.602952 30.417712 30.417712 30.417712l182.695203 0c16.81476 0 30.417712-13.602952 30.417712-30.417712 0-16.81476-13.602952-30.417712-30.417712-30.417712l-182.695203 0C405.821402 804.652399 392.21845 818.255351 392.21845 835.070111L392.21845 835.070111 392.21845 835.070111 392.21845 835.070111zM392.21845 835.070111" p-id="2777"></path></svg>