<?xml version="1.0" standalone="no"?><!DOCTYPE svg PUBLIC "-//W3C//DTD SVG 1.1//EN" "http://www.w3.org/Graphics/SVG/1.1/DTD/svg11.dtd"><svg t="1504407379955" class="icon" style="" viewBox="0 0 3804 1024" version="1.1" xmlns="http://www.w3.org/2000/svg" p-id="13422" xmlns:xlink="http://www.w3.org/1999/xlink" width="742.96875" height="200"><defs><style type="text/css"></style></defs><path d="M0 13.403141 219.811518 13.403141l168.879581 463.748691c21.445026 61.65445 40.209424 127.329843 60.314136 191.664921l6.701571 0c21.445026-64.335079 38.86911-130.010471 60.314136-191.664921l164.858639-463.748691 219.811518 0L900.691099 1005.235602l-180.942408 0 0-414.157068c0-93.82199 14.743455-231.874346 24.125654-325.696335l-5.361257 0-80.418848 233.21466-152.795812 416.837696-113.926702 0-154.136126-416.837696L158.157068 265.382199 152.795812 265.382199c9.382199 93.82199 25.465969 231.874346 25.465969 325.696335L178.26178 1005.235602l-178.26178 0L0 13.403141z" p-id="13423"></path><path d="M1144.580404 13.403141l608.502618 0 0 164.81077-410.136126 0 0 229.193717 348.481675 0 0 166.246821-348.481675 0 0 265.382199 424.879581 0L1767.826477 1005.235602l-623.246073 0L1144.580404 13.403141z" p-id="13424"></path><path d="M1968.921466 13.403141l202.387435 0 288.215408 528.08377L2558.659686 755.937173l6.653702 0c-10.722513-103.204188-25.4181-234.554974-25.4181-347.141361L2539.895288 13.403141l187.643979 0L2727.539267 1005.235602l-201.04712 0L2239.664921 474.471204 2139.093493 261.361257l-6.701571 0c9.334331 107.225131 24.125654 231.874346 24.125654 345.801047L2156.517577 1005.235602l-187.643979 0L1968.873598 13.403141z" p-id="13425"></path><path d="M2967.407629 558.910995 2967.407629 13.403141l198.414361 0 0 562.931937c0 206.408377 70.988781 276.104712 187.643979 276.104712 117.899776 0 192.957367-69.696335 192.957367-276.104712L3546.423336 13.403141l190.372476 0 0 545.507853c0 329.765146-140.732984 465.089005-383.329843 465.089005C3112.113687 1024 2967.407629 888.628272 2967.407629 558.910995z" p-id="13426"></path></svg>