<?xml version="1.0" standalone="no"?><!DOCTYPE svg PUBLIC "-//W3C//DTD SVG 1.1//EN" "http://www.w3.org/Graphics/SVG/1.1/DTD/svg11.dtd"><svg t="1503641328264" class="icon" style="" viewBox="0 0 1024 1024" version="1.1" xmlns="http://www.w3.org/2000/svg" p-id="2377" xmlns:xlink="http://www.w3.org/1999/xlink" width="200" height="200"><defs><style type="text/css"></style></defs><path d="M769.529 364.586H570.917v39.724h198.612c21.939 0 39.722 17.784 39.722 39.72v436.946c0 21.939-17.784 39.724-39.722 39.724H253.138c-21.939 0-39.72-17.786-39.72-39.724V444.031c0-21.937 17.782-39.72 39.72-39.72H451.75v-39.724H253.138c-43.875 0-79.445 35.569-79.445 79.445v436.946c0 43.875 35.569 79.445 79.445 79.445h516.391c43.877 0 79.445-35.569 79.445-79.445V444.031c-0.001-43.875-35.568-79.445-79.445-79.445z m-388.7-122.154L491.472 131.79v371.825c0 10.971 8.892 19.861 19.863 19.861 10.967 0 19.859-8.89 19.859-19.861V134.063l108.14 108.353a19.798 19.798 0 0 0 14.062 5.837 19.826 19.826 0 0 0 14.024-5.799c7.778-7.758 7.778-20.328 0.038-28.088L524.299 70.919a19.814 19.814 0 0 0-14.042-5.839h-0.02a19.845 19.845 0 0 0-14.04 5.817L352.744 214.348c-7.758 7.758-7.758 20.328 0 28.084 7.76 7.762 20.328 7.762 28.085 0z" p-id="2378"></path></svg>