<?xml version="1.0" standalone="no"?><!DOCTYPE svg PUBLIC "-//W3C//DTD SVG 1.1//EN" "http://www.w3.org/Graphics/SVG/1.1/DTD/svg11.dtd"><svg t="1503633766320" class="icon" style="" viewBox="0 0 1024 1024" version="1.1" xmlns="http://www.w3.org/2000/svg" p-id="16345" xmlns:xlink="http://www.w3.org/1999/xlink" width="200" height="200"><defs><style type="text/css"></style></defs><path d="M764.416 701.44c58.88-72.704 93.696-165.376 93.696-266.24 0-235.008-190.464-425.472-425.472-425.472s-425.472 190.464-425.472 425.472c0 235.008 190.464 425.472 425.472 425.472 116.224 0 221.696-46.592 298.496-122.368l247.296 274.432 36.864-33.28-250.88-278.016z m-331.776 109.568c-207.872 0-375.808-168.448-375.808-375.808s170.496-375.808 375.808-375.808c207.872 0 375.808 168.448 375.808 375.808s-167.936 375.808-375.808 375.808z" p-id="16346"></path></svg>