<?xml version="1.0" standalone="no"?><!DOCTYPE svg PUBLIC "-//W3C//DTD SVG 1.1//EN" "http://www.w3.org/Graphics/SVG/1.1/DTD/svg11.dtd"><svg t="1503640231376" class="icon" style="" viewBox="0 0 1024 1024" version="1.1" xmlns="http://www.w3.org/2000/svg" p-id="4803" xmlns:xlink="http://www.w3.org/1999/xlink" width="200" height="200"><defs><style type="text/css"></style></defs><path d="M885.374756 218.633463 138.624221 218.633463c-14.728446 0-26.669406-11.94096-26.669406-26.669406s11.94096-26.669406 26.669406-26.669406l746.750535 0c14.728446 0 26.669406 11.94096 26.669406 26.669406S900.103202 218.633463 885.374756 218.633463z" p-id="4804"></path><path d="M618.678648 538.670429l-480.053404 0c-14.728446 0-26.669406-11.94096-26.669406-26.669406 0-14.728446 11.94096-26.669406 26.669406-26.669406l480.053404 0c14.728446 0 26.669406 11.94096 26.669406 26.669406C645.348054 526.728446 633.407094 538.670429 618.678648 538.670429z" p-id="4805"></path><path d="M885.374756 858.70535 138.624221 858.70535c-14.728446 0-26.669406-11.94096-26.669406-26.669406 0-14.728446 11.94096-26.669406 26.669406-26.669406l746.750535 0c14.728446 0 26.669406 11.94096 26.669406 26.669406C912.045185 846.76439 900.103202 858.70535 885.374756 858.70535z" p-id="4806"></path></svg>