<?xml version="1.0" standalone="no"?><!DOCTYPE svg PUBLIC "-//W3C//DTD SVG 1.1//EN" "http://www.w3.org/Graphics/SVG/1.1/DTD/svg11.dtd"><svg t="1504407270685" class="icon" style="" viewBox="0 0 1024 1024" version="1.1" xmlns="http://www.w3.org/2000/svg" p-id="8373" xmlns:xlink="http://www.w3.org/1999/xlink" width="200" height="200"><defs><style type="text/css"></style></defs><path d="M513.723248 64.312748c-246.779499 0-446.832791 200.054315-446.832791 446.833815S266.943748 957.980377 513.723248 957.980377s446.832791-200.053292 446.832791-446.832791S760.501724 64.312748 513.723248 64.312748zM790.726096 625.685225c-7.222495 7.229658-16.70138 10.844999-26.172079 10.844999s-18.949584-3.615341-26.172079-10.844999L525.400195 412.711669c-3.802606-3.78828-9.991562-3.802606-13.795191 0l-212.980719 212.973556c-14.446014 14.46034-37.899168 14.46034-52.345182 0-14.46034-14.453177-14.46034-37.892005 0-52.345182l212.980719-212.973556c32.679283-32.664957 85.834924-32.664957 118.484531 0l212.980719 212.973556C805.186436 587.79322 805.186436 611.233072 790.726096 625.685225z" p-id="8374"></path></svg>